<svg xmlns="http://www.w3.org/2000/svg" xmlns:xlink="http://www.w3.org/1999/xlink" width="153.604" height="153.604" viewBox="0 0 153.604 153.604">
  <defs>
    <linearGradient id="linear-gradient" x1="0.5" x2="0.5" y2="1" gradientUnits="objectBoundingBox">
      <stop offset="0" stop-color="#f56fbf"/>
      <stop offset="1" stop-color="#38697b"/>
    </linearGradient>
  </defs>
  <g id="Logo" transform="translate(-883.002 -18.035)">
    <g id="Grupo_2" data-name="Grupo 2" transform="translate(1249.737 749.416) rotate(-137)">
      <path id="Uni贸n_1" data-name="Uni贸n 1" d="M38.4,108.68A38.415,38.415,0,0,1,4.3,52.605,38.114,38.114,0,0,0,15.069,73.684l27.376,26.8c1.973,1.974,3.4,2.933,4.367,2.933a1.164,1.164,0,0,0,.895-.4c1.278-1.41.78-6.489.151-12.919-.567-5.794-1.274-13-.841-19.607.506-7.719,2.444-13.163,5.926-16.645,3.733-3.734,9.609-5.549,17.963-5.549A106.58,106.58,0,0,1,86.6,49.783q1.336.2,2.582.4A69.339,69.339,0,0,0,98.1,51.26c1.545,0,2.375-.268,2.614-.844.349-.843-.591-2.338-2.957-4.7L69.368,19.384A38.49,38.49,0,0,0,46.361,8.362a38.409,38.409,0,0,1,59.51,44.482,38.157,38.157,0,0,1-8.434,12.7L65.546,97.435A38.275,38.275,0,0,1,38.4,108.68Z" transform="translate(604.123 226.654)" fill="url(#linear-gradient)"/>
    </g>
    <path id="Sustracci贸n_2" data-name="Sustracci贸n 2" d="M32.333,30a37.985,37.985,0,0,1-12.988-2.472,40.273,40.273,0,0,0,.989-9.4,44.849,44.849,0,0,0-.589-7.5c6.119,2.546,11.471,3.837,15.908,3.837a24.226,24.226,0,0,0,9.913-2.183c-.154,1.54-.232,3.17-.232,4.845a39.094,39.094,0,0,0,1.082,9.76,38.83,38.83,0,0,1-12.371,3.066C33.484,29.987,32.908,30,32.333,30ZM13.827,25.045h0a36.148,36.148,0,0,1-9.043-6.7c-2.4-2.524-3.852-5.079-4.2-7.39A36.532,36.532,0,0,1,.091,2.192,6.027,6.027,0,0,1,.584,0,113.27,113.27,0,0,0,14.459,8.21a39.115,39.115,0,0,0-1.125,9.918,46.122,46.122,0,0,0,.493,6.915Zm37.976-.77v0a45.622,45.622,0,0,0,.53-7.146,42.578,42.578,0,0,0-.762-8.41A39.568,39.568,0,0,0,60.054,0a8.115,8.115,0,0,1,2.831,1.534,10.38,10.38,0,0,1,3.6,6.794,6.191,6.191,0,0,1-.806,3.623A18.515,18.515,0,0,1,62.642,16.1a45.371,45.371,0,0,1-10.837,8.177Z" transform="translate(929.166 89.871)" fill="#766b91"/>
    <path id="Trazado_3" data-name="Trazado 3" d="M948.306,259.8c1.417,1.259,18.989,2.737,29.872-1.716s15.077-14.836,13.66-16.1-6.07,9.623-16.953,14.076S946.89,258.539,948.306,259.8Z" transform="translate(-2 -122)" fill="#fc7087"/>
    <path id="Trazado_4" data-name="Trazado 4" d="M985.938,239.953s3.657-2.1,5.7-1.312,1.234,4.672,1.234,4.672" transform="translate(0 -122)" fill="none" stroke="#ff5d78" stroke-width="0.5" opacity="0.63"/>
  </g>
</svg>
