<svg xmlns="http://www.w3.org/2000/svg" width="17.536" height="17.009" viewBox="0 0 17.536 17.009">
  <g id="send-message-button" transform="translate(0 -0.387)">
    <g id="Grupo_10" data-name="Grupo 10" transform="translate(0 0.387)">
      <path id="Trazado_10" data-name="Trazado 10" d="M16.635.53.481,9c-.665.348-.637.859.06,1.135l2.062.815a2.644,2.644,0,0,0,2.342-.337L13.9,3.551c.589-.464.652-.4.14.153L6.962,11.285A.857.857,0,0,0,7.3,12.772l.241.095c.7.27,1.839.724,2.533,1.007l2.287.931c.7.283,1.264.517,1.264.521s0,.017.007.018.168-.589.364-1.313L17.484,1.214C17.681.489,17.3.182,16.635.53Z" transform="translate(0 -0.387)" fill="#fff"/>
      <path id="Trazado_11" data-name="Trazado 11" d="M9.191,19.47l-1.583-.647c-.694-.284-1.026.049-.739.742,0,0,1.469,3.54,1.429,3.665s1.409-2.1,1.409-2.1A1.087,1.087,0,0,0,9.191,19.47Z" transform="translate(-2.155 -6.226)" fill="#fff"/>
    </g>
  </g>
</svg>
